<mxfile host="app.diagrams.net" agent="Mozilla/5.0 (Macintosh; Intel Mac OS X 10_15_7) AppleWebKit/605.1.15 (KHTML, like Gecko) Version/17.6 Safari/605.1.15" version="25.0.1">
  <diagram name="Page-1" id="gcOh2L13ghurHqlArtQZ">
    <mxGraphModel dx="1390" dy="331" grid="1" gridSize="11" guides="1" tooltips="1" connect="1" arrows="1" fold="1" page="1" pageScale="1" pageWidth="827" pageHeight="1169" background="#ffffff" math="0" shadow="0">
      <root>
        <mxCell id="0" />
        <mxCell id="1" parent="0" />
        <mxCell id="uvgIFms-rv46Gu-G6dfy-30" style="edgeStyle=orthogonalEdgeStyle;rounded=0;orthogonalLoop=1;jettySize=auto;html=1;exitX=0.5;exitY=1;exitDx=0;exitDy=0;entryX=0.5;entryY=0;entryDx=0;entryDy=0;" parent="1" source="VRNMHvbQ2h5_KSJw3uvR-1" target="uvgIFms-rv46Gu-G6dfy-111" edge="1">
          <mxGeometry relative="1" as="geometry">
            <mxPoint x="380" y="150" as="targetPoint" />
          </mxGeometry>
        </mxCell>
        <mxCell id="VRNMHvbQ2h5_KSJw3uvR-1" value="" style="ellipse;whiteSpace=wrap;html=1;aspect=fixed;" parent="1" vertex="1">
          <mxGeometry x="280" y="120" width="40" height="40" as="geometry" />
        </mxCell>
        <mxCell id="uvgIFms-rv46Gu-G6dfy-117" style="edgeStyle=orthogonalEdgeStyle;rounded=0;orthogonalLoop=1;jettySize=auto;html=1;exitX=0.5;exitY=1;exitDx=0;exitDy=0;entryX=0.5;entryY=0;entryDx=0;entryDy=0;" parent="1" source="uvgIFms-rv46Gu-G6dfy-111" edge="1">
          <mxGeometry relative="1" as="geometry">
            <mxPoint x="300" y="280" as="targetPoint" />
          </mxGeometry>
        </mxCell>
        <mxCell id="uvgIFms-rv46Gu-G6dfy-111" value="Receive an integer as n" style="rounded=1;whiteSpace=wrap;html=1;" parent="1" vertex="1">
          <mxGeometry x="240" y="200" width="120" height="40" as="geometry" />
        </mxCell>
        <mxCell id="DMdOqw-Hk1IALb-FgSjt-3" style="edgeStyle=orthogonalEdgeStyle;rounded=0;orthogonalLoop=1;jettySize=auto;html=1;exitX=0.5;exitY=1;exitDx=0;exitDy=0;entryX=0.5;entryY=0;entryDx=0;entryDy=0;" edge="1" parent="1" source="DMdOqw-Hk1IALb-FgSjt-1" target="DMdOqw-Hk1IALb-FgSjt-6">
          <mxGeometry relative="1" as="geometry">
            <mxPoint x="300" y="360" as="targetPoint" />
          </mxGeometry>
        </mxCell>
        <mxCell id="DMdOqw-Hk1IALb-FgSjt-1" value="Initialise a list of dimension n and an integer i equal to 1" style="rounded=1;whiteSpace=wrap;html=1;fontSize=11;" vertex="1" parent="1">
          <mxGeometry x="240" y="280" width="120" height="40" as="geometry" />
        </mxCell>
        <mxCell id="DMdOqw-Hk1IALb-FgSjt-9" style="edgeStyle=orthogonalEdgeStyle;rounded=0;orthogonalLoop=1;jettySize=auto;html=1;exitX=1;exitY=0.5;exitDx=0;exitDy=0;entryX=0;entryY=0.5;entryDx=0;entryDy=0;" edge="1" parent="1" source="DMdOqw-Hk1IALb-FgSjt-6" target="DMdOqw-Hk1IALb-FgSjt-7">
          <mxGeometry relative="1" as="geometry" />
        </mxCell>
        <mxCell id="DMdOqw-Hk1IALb-FgSjt-11" value="No" style="edgeLabel;html=1;align=center;verticalAlign=middle;resizable=0;points=[];" vertex="1" connectable="0" parent="DMdOqw-Hk1IALb-FgSjt-9">
          <mxGeometry x="-0.1427" y="1" relative="1" as="geometry">
            <mxPoint as="offset" />
          </mxGeometry>
        </mxCell>
        <mxCell id="DMdOqw-Hk1IALb-FgSjt-13" style="edgeStyle=orthogonalEdgeStyle;rounded=0;orthogonalLoop=1;jettySize=auto;html=1;exitX=0.5;exitY=1;exitDx=0;exitDy=0;entryX=0.5;entryY=0;entryDx=0;entryDy=0;" edge="1" parent="1" source="DMdOqw-Hk1IALb-FgSjt-6" target="DMdOqw-Hk1IALb-FgSjt-12">
          <mxGeometry relative="1" as="geometry" />
        </mxCell>
        <mxCell id="DMdOqw-Hk1IALb-FgSjt-14" value="Yes" style="edgeLabel;html=1;align=center;verticalAlign=middle;resizable=0;points=[];" vertex="1" connectable="0" parent="DMdOqw-Hk1IALb-FgSjt-13">
          <mxGeometry x="-0.4282" y="1" relative="1" as="geometry">
            <mxPoint as="offset" />
          </mxGeometry>
        </mxCell>
        <mxCell id="DMdOqw-Hk1IALb-FgSjt-6" value="i &amp;lt;= n" style="rhombus;whiteSpace=wrap;html=1;" vertex="1" parent="1">
          <mxGeometry x="275" y="360" width="50" height="50" as="geometry" />
        </mxCell>
        <mxCell id="DMdOqw-Hk1IALb-FgSjt-10" style="edgeStyle=orthogonalEdgeStyle;rounded=0;orthogonalLoop=1;jettySize=auto;html=1;exitX=1;exitY=0.5;exitDx=0;exitDy=0;entryX=0;entryY=0.5;entryDx=0;entryDy=0;" edge="1" parent="1" source="DMdOqw-Hk1IALb-FgSjt-7" target="DMdOqw-Hk1IALb-FgSjt-8">
          <mxGeometry relative="1" as="geometry" />
        </mxCell>
        <mxCell id="DMdOqw-Hk1IALb-FgSjt-7" value="Return the list" style="rounded=1;whiteSpace=wrap;html=1;" vertex="1" parent="1">
          <mxGeometry x="360" y="365" width="120" height="40" as="geometry" />
        </mxCell>
        <mxCell id="DMdOqw-Hk1IALb-FgSjt-8" value="" style="ellipse;whiteSpace=wrap;html=1;aspect=fixed;strokeWidth=3;" vertex="1" parent="1">
          <mxGeometry x="520" y="365" width="40" height="40" as="geometry" />
        </mxCell>
        <mxCell id="DMdOqw-Hk1IALb-FgSjt-16" style="edgeStyle=orthogonalEdgeStyle;rounded=0;orthogonalLoop=1;jettySize=auto;html=1;exitX=1;exitY=0.5;exitDx=0;exitDy=0;entryX=0;entryY=0.5;entryDx=0;entryDy=0;" edge="1" parent="1" source="DMdOqw-Hk1IALb-FgSjt-12">
          <mxGeometry relative="1" as="geometry">
            <mxPoint x="360" y="475" as="targetPoint" />
          </mxGeometry>
        </mxCell>
        <mxCell id="DMdOqw-Hk1IALb-FgSjt-17" value="Yes" style="edgeLabel;html=1;align=center;verticalAlign=middle;resizable=0;points=[];" vertex="1" connectable="0" parent="DMdOqw-Hk1IALb-FgSjt-16">
          <mxGeometry x="-0.404" y="-1" relative="1" as="geometry">
            <mxPoint x="2" y="-1" as="offset" />
          </mxGeometry>
        </mxCell>
        <mxCell id="DMdOqw-Hk1IALb-FgSjt-20" style="edgeStyle=orthogonalEdgeStyle;rounded=0;orthogonalLoop=1;jettySize=auto;html=1;exitX=0;exitY=0.5;exitDx=0;exitDy=0;entryX=1;entryY=0.5;entryDx=0;entryDy=0;" edge="1" parent="1" source="DMdOqw-Hk1IALb-FgSjt-12" target="DMdOqw-Hk1IALb-FgSjt-19">
          <mxGeometry relative="1" as="geometry" />
        </mxCell>
        <mxCell id="DMdOqw-Hk1IALb-FgSjt-21" value="No" style="edgeLabel;html=1;align=center;verticalAlign=middle;resizable=0;points=[];" vertex="1" connectable="0" parent="DMdOqw-Hk1IALb-FgSjt-20">
          <mxGeometry x="-0.1103" y="1" relative="1" as="geometry">
            <mxPoint as="offset" />
          </mxGeometry>
        </mxCell>
        <mxCell id="DMdOqw-Hk1IALb-FgSjt-12" value="i % 2==0" style="rhombus;whiteSpace=wrap;html=1;fontSize=10;" vertex="1" parent="1">
          <mxGeometry x="275" y="450" width="50" height="50" as="geometry" />
        </mxCell>
        <mxCell id="DMdOqw-Hk1IALb-FgSjt-31" style="edgeStyle=orthogonalEdgeStyle;rounded=0;orthogonalLoop=1;jettySize=auto;html=1;exitX=0.5;exitY=1;exitDx=0;exitDy=0;entryX=0.5;entryY=0;entryDx=0;entryDy=0;" edge="1" parent="1" source="DMdOqw-Hk1IALb-FgSjt-19" target="DMdOqw-Hk1IALb-FgSjt-30">
          <mxGeometry relative="1" as="geometry" />
        </mxCell>
        <mxCell id="DMdOqw-Hk1IALb-FgSjt-19" value="Initialise x = 0 and j = 1" style="rounded=1;whiteSpace=wrap;html=1;fontSize=11;" vertex="1" parent="1">
          <mxGeometry x="110" y="455" width="130" height="40" as="geometry" />
        </mxCell>
        <mxCell id="DMdOqw-Hk1IALb-FgSjt-27" style="edgeStyle=orthogonalEdgeStyle;rounded=0;orthogonalLoop=1;jettySize=auto;html=1;exitX=0;exitY=0.5;exitDx=0;exitDy=0;" edge="1" parent="1" source="DMdOqw-Hk1IALb-FgSjt-22">
          <mxGeometry relative="1" as="geometry">
            <mxPoint x="300" y="341" as="targetPoint" />
            <mxPoint x="220" y="690" as="sourcePoint" />
            <Array as="points">
              <mxPoint x="-10" y="700" />
              <mxPoint x="-10" y="341" />
              <mxPoint x="200" y="341" />
            </Array>
          </mxGeometry>
        </mxCell>
        <mxCell id="DMdOqw-Hk1IALb-FgSjt-22" value="Append x to the list and increase i by 1" style="rounded=1;whiteSpace=wrap;html=1;" vertex="1" parent="1">
          <mxGeometry x="240" y="680" width="120" height="40" as="geometry" />
        </mxCell>
        <mxCell id="DMdOqw-Hk1IALb-FgSjt-32" style="edgeStyle=orthogonalEdgeStyle;rounded=0;orthogonalLoop=1;jettySize=auto;html=1;exitX=0.5;exitY=1;exitDx=0;exitDy=0;entryX=0.5;entryY=0;entryDx=0;entryDy=0;" edge="1" parent="1" source="DMdOqw-Hk1IALb-FgSjt-28" target="DMdOqw-Hk1IALb-FgSjt-29">
          <mxGeometry relative="1" as="geometry" />
        </mxCell>
        <mxCell id="DMdOqw-Hk1IALb-FgSjt-28" value="Initialise x = 1 and j = 1" style="rounded=1;whiteSpace=wrap;html=1;fontSize=11;" vertex="1" parent="1">
          <mxGeometry x="360" y="455" width="130" height="40" as="geometry" />
        </mxCell>
        <mxCell id="DMdOqw-Hk1IALb-FgSjt-35" style="edgeStyle=orthogonalEdgeStyle;rounded=0;orthogonalLoop=1;jettySize=auto;html=1;exitX=0.5;exitY=1;exitDx=0;exitDy=0;entryX=0.5;entryY=0;entryDx=0;entryDy=0;" edge="1" parent="1" source="DMdOqw-Hk1IALb-FgSjt-29" target="DMdOqw-Hk1IALb-FgSjt-33">
          <mxGeometry relative="1" as="geometry" />
        </mxCell>
        <mxCell id="DMdOqw-Hk1IALb-FgSjt-40" value="Yes" style="edgeLabel;html=1;align=center;verticalAlign=middle;resizable=0;points=[];" vertex="1" connectable="0" parent="DMdOqw-Hk1IALb-FgSjt-35">
          <mxGeometry x="-0.2409" y="-2" relative="1" as="geometry">
            <mxPoint as="offset" />
          </mxGeometry>
        </mxCell>
        <mxCell id="DMdOqw-Hk1IALb-FgSjt-41" style="edgeStyle=orthogonalEdgeStyle;rounded=0;orthogonalLoop=1;jettySize=auto;html=1;exitX=1;exitY=0.5;exitDx=0;exitDy=0;entryX=1;entryY=0.5;entryDx=0;entryDy=0;" edge="1" parent="1" source="DMdOqw-Hk1IALb-FgSjt-29" target="DMdOqw-Hk1IALb-FgSjt-22">
          <mxGeometry relative="1" as="geometry">
            <Array as="points">
              <mxPoint x="517" y="545" />
              <mxPoint x="517" y="700" />
            </Array>
          </mxGeometry>
        </mxCell>
        <mxCell id="DMdOqw-Hk1IALb-FgSjt-42" value="No" style="edgeLabel;html=1;align=center;verticalAlign=middle;resizable=0;points=[];" vertex="1" connectable="0" parent="DMdOqw-Hk1IALb-FgSjt-41">
          <mxGeometry x="-0.8467" relative="1" as="geometry">
            <mxPoint as="offset" />
          </mxGeometry>
        </mxCell>
        <mxCell id="DMdOqw-Hk1IALb-FgSjt-29" value="j &amp;lt;= i" style="rhombus;whiteSpace=wrap;html=1;fontSize=10;" vertex="1" parent="1">
          <mxGeometry x="400" y="520" width="50" height="50" as="geometry" />
        </mxCell>
        <mxCell id="DMdOqw-Hk1IALb-FgSjt-36" style="edgeStyle=orthogonalEdgeStyle;rounded=0;orthogonalLoop=1;jettySize=auto;html=1;exitX=0.5;exitY=1;exitDx=0;exitDy=0;entryX=0.5;entryY=0;entryDx=0;entryDy=0;" edge="1" parent="1" source="DMdOqw-Hk1IALb-FgSjt-30" target="DMdOqw-Hk1IALb-FgSjt-34">
          <mxGeometry relative="1" as="geometry" />
        </mxCell>
        <mxCell id="DMdOqw-Hk1IALb-FgSjt-39" value="Yes" style="edgeLabel;html=1;align=center;verticalAlign=middle;resizable=0;points=[];" vertex="1" connectable="0" parent="DMdOqw-Hk1IALb-FgSjt-36">
          <mxGeometry x="-0.2727" y="-2" relative="1" as="geometry">
            <mxPoint as="offset" />
          </mxGeometry>
        </mxCell>
        <mxCell id="DMdOqw-Hk1IALb-FgSjt-43" style="edgeStyle=orthogonalEdgeStyle;rounded=0;orthogonalLoop=1;jettySize=auto;html=1;exitX=0;exitY=0.5;exitDx=0;exitDy=0;entryX=0.5;entryY=0;entryDx=0;entryDy=0;" edge="1" parent="1" source="DMdOqw-Hk1IALb-FgSjt-30" target="DMdOqw-Hk1IALb-FgSjt-22">
          <mxGeometry relative="1" as="geometry">
            <Array as="points">
              <mxPoint x="77" y="545" />
              <mxPoint x="77" y="660" />
              <mxPoint x="300" y="660" />
            </Array>
          </mxGeometry>
        </mxCell>
        <mxCell id="DMdOqw-Hk1IALb-FgSjt-44" value="No" style="edgeLabel;html=1;align=center;verticalAlign=middle;resizable=0;points=[];" vertex="1" connectable="0" parent="DMdOqw-Hk1IALb-FgSjt-43">
          <mxGeometry x="-0.9116" y="2" relative="1" as="geometry">
            <mxPoint as="offset" />
          </mxGeometry>
        </mxCell>
        <mxCell id="DMdOqw-Hk1IALb-FgSjt-30" value="j &amp;lt;= i" style="rhombus;whiteSpace=wrap;html=1;fontSize=10;" vertex="1" parent="1">
          <mxGeometry x="150" y="520" width="50" height="50" as="geometry" />
        </mxCell>
        <mxCell id="DMdOqw-Hk1IALb-FgSjt-38" style="edgeStyle=orthogonalEdgeStyle;rounded=0;orthogonalLoop=1;jettySize=auto;html=1;exitX=0;exitY=0.5;exitDx=0;exitDy=0;" edge="1" parent="1" source="DMdOqw-Hk1IALb-FgSjt-33">
          <mxGeometry relative="1" as="geometry">
            <mxPoint x="425" y="506" as="targetPoint" />
            <Array as="points">
              <mxPoint x="340" y="620" />
              <mxPoint x="340" y="506" />
            </Array>
          </mxGeometry>
        </mxCell>
        <mxCell id="DMdOqw-Hk1IALb-FgSjt-33" value="x *= j&lt;div&gt;j += 1&lt;/div&gt;" style="rounded=1;whiteSpace=wrap;html=1;fontSize=11;" vertex="1" parent="1">
          <mxGeometry x="360" y="600" width="130" height="40" as="geometry" />
        </mxCell>
        <mxCell id="DMdOqw-Hk1IALb-FgSjt-37" style="edgeStyle=orthogonalEdgeStyle;rounded=0;orthogonalLoop=1;jettySize=auto;html=1;exitX=1;exitY=0.5;exitDx=0;exitDy=0;" edge="1" parent="1" source="DMdOqw-Hk1IALb-FgSjt-34">
          <mxGeometry relative="1" as="geometry">
            <mxPoint x="176" y="506" as="targetPoint" />
            <Array as="points">
              <mxPoint x="261" y="620" />
              <mxPoint x="261" y="506" />
            </Array>
          </mxGeometry>
        </mxCell>
        <mxCell id="DMdOqw-Hk1IALb-FgSjt-34" value="x += j&lt;div&gt;j += 1&lt;/div&gt;" style="rounded=1;whiteSpace=wrap;html=1;fontSize=11;" vertex="1" parent="1">
          <mxGeometry x="110" y="600" width="130" height="40" as="geometry" />
        </mxCell>
      </root>
    </mxGraphModel>
  </diagram>
</mxfile>
